<svg width="179" height="45" viewBox="0 0 179 45" fill="none" xmlns="http://www.w3.org/2000/svg">
<path fill-rule="evenodd" clip-rule="evenodd" d="M26.8908 15.2172L20 9.15434L0 26.7514V2.5H40V10.4113C40 16.4741 31.7647 19.5055 26.8908 15.2172ZM13.1092 29.7828L20 35.8457L40 18.2486V42.5H0V34.5888C0 28.5259 8.23529 25.4945 13.1092 29.7828Z" fill="#FFBB54"/>
<path d="M72.42 35.36C77.13 35.36 80.61 32.66 81.75 29.54L78.39 27.92C77.46 30.29 75.33 31.94 72.42 31.94C68.07 31.94 65.07 28.64 65.07 23.81C65.07 19.01 68.07 15.71 72.42 15.71C75.33 15.71 77.46 17.36 78.39 19.73L81.75 18.11C80.61 14.99 77.13 12.29 72.42 12.29C66 12.29 61.29 17.15 61.29 23.81C61.29 30.47 66.03 35.36 72.42 35.36ZM91.9179 35.36C96.6279 35.36 100.408 31.79 100.408 26.9C100.408 22.01 96.6579 18.47 91.9179 18.47C87.1479 18.47 83.4279 22.01 83.4279 26.9C83.4279 31.79 87.1779 35.36 91.9179 35.36ZM91.9179 32.03C89.1579 32.03 87.1779 29.9 87.1779 26.93C87.1779 23.96 89.1579 21.8 91.9179 21.8C94.6479 21.8 96.6579 23.96 96.6579 26.93C96.6579 29.9 94.6479 32.03 91.9179 32.03ZM113.131 18.83V28.43C113.131 30.62 111.751 32.03 109.711 32.03C107.641 32.03 106.261 30.62 106.261 28.43V18.83H102.661V28.88C102.661 32.6 105.181 35.36 108.781 35.36C110.761 35.36 112.411 34.55 113.311 33.14V35H116.731V18.83H113.131ZM127.987 18.65C126.007 18.65 124.447 19.31 123.607 21.08V18.83H120.217V35H123.817V25.85C123.817 23.33 125.317 21.89 127.537 21.89H129.487V18.65H127.987ZM137.85 35.36C141.54 35.36 144.09 33.38 144.09 30.47C144.09 28.22 142.59 26.6 139.8 25.82L136.92 25.01C135.99 24.74 134.97 24.23 134.97 23.21C134.97 22.19 135.9 21.5 137.4 21.5C139.23 21.5 140.67 22.43 141.27 23.96L144.09 22.64C143.1 20.06 140.58 18.47 137.4 18.47C133.83 18.47 131.4 20.45 131.4 23.36C131.4 25.55 132.81 27.2 135.63 27.98L138.39 28.7C139.38 28.97 140.52 29.45 140.52 30.56C140.52 31.67 139.47 32.42 137.85 32.42C135.93 32.42 134.34 31.4 133.5 29.48L130.71 30.83C131.73 33.65 134.49 35.36 137.85 35.36ZM161.464 26.33C161.464 22.04 158.224 18.47 153.664 18.47C149.104 18.47 145.654 22.04 145.654 26.9C145.654 31.64 149.044 35.36 153.934 35.36C157.234 35.36 159.874 33.68 160.864 31.37L157.894 29.93C157.174 31.25 155.884 32.18 153.964 32.18C151.474 32.18 149.584 30.53 149.404 27.95H161.284C161.404 27.47 161.464 26.9 161.464 26.33ZM149.464 25.16C149.884 22.79 151.564 21.47 153.664 21.47C155.734 21.47 157.474 23 157.594 25.16H149.464ZM170.292 18.47C167.082 18.47 164.382 20.18 163.452 22.64L166.572 24.2C167.172 22.67 168.552 21.71 170.292 21.71C172.092 21.71 173.322 22.7 173.322 24.2V24.71L168.012 25.85C164.742 26.57 162.852 28.16 162.852 30.56C162.852 33.32 165.132 35.36 168.732 35.36C170.682 35.36 172.332 34.64 173.532 33.2V35H176.922V24.2C176.922 20.84 174.222 18.47 170.292 18.47ZM169.152 32.51C167.592 32.51 166.602 31.76 166.602 30.53C166.602 29.54 167.382 28.76 168.732 28.46L173.322 27.44V28.49C173.322 30.77 171.552 32.51 169.152 32.51Z" fill="white"/>
</svg>
